PathFileType	4	(X/Y/Z)	/Users/niels/Desktop/University/Third Semester/Perception and Action/Exam/Gymnastics Motion Tracking/Code for Gym Tracking/Analyzed Data/Webcam_Backflip/id1_5_trajectory_Sports2D/id1_5_trajectory_Sports2D_px_person00.trc
DataRate	CameraRate	NumFrames	NumMarkers	Units	OrigDataRate	OrigDataStartFrame	OrigNumFrames
29.71698113207547	29.71698113207547	8	22	m	29.71698113207547	39	106
Frame#	Time	Hip			RHip			RKnee			RAnkle			RBigToe			RSmallToe			RHeel			LHip			LKnee			LAnkle			LBigToe			LSmallToe			LHeel			Neck			Head			Nose			RShoulder			RElbow			RWrist			LShoulder			LElbow			LWrist		
		X1	Y1	Z1	X2	Y2	Z2	X3	Y3	Z3	X4	Y4	Z4	X5	Y5	Z5	X6	Y6	Z6	X7	Y7	Z7	X8	Y8	Z8	X9	Y9	Z9	X10	Y10	Z10	X11	Y11	Z11	X12	Y12	Z12	X13	Y13	Z13	X14	Y14	Z14	X15	Y15	Z15	X16	Y16	Z16	X17	Y17	Z17	X18	Y18	Z18	X19	Y19	Z19	X20	Y20	Z20	X21	Y21	Z21	X22	Y22	Z22
39	1.3123809523809522	0.9587106790016691	-0.5884578551635631	0.0	0.9528146522615403	-0.5861833913554971	0.0	0.9677826125471317	-0.7127990395830337	0.0	0.9577731166382053	-0.8407295131305998	0.0	1.0024979339412696	-0.8666246721533172	0.0	0.9892638323417483	-0.8707161325858207	0.0	0.9474255708836276	-0.8593298853760951	0.0	0.9671284531928335	-0.5864697115267955	0.0	0.969350057412043	-0.7111833730762644	0.0	0.9595399589585145	-0.8326482503673234	0.0	1.0020288961214172	-0.8578202323874863	0.0	0.9982897001803525	-0.8549649264174419	0.0	0.9441896023583517	-0.8525969248638362	0.0	1.0223541235584965	-0.42435060947498837	0.0	1.0933365044943175	-0.3690183495429461	0.0	1.0755463910998186	-0.4141007628878616	0.0	1.0059214387509865	-0.4259166691021308	0.0	0.9392274579509576	-0.4396012791345897	0.0	0.8777499295826493	-0.4311289948315118	0.0	1.0148764001552493	-0.43109868440530386	0.0	0.9671001553727806	-0.4423271741615656	0.0	0.9031349831005575	-0.43077755498154136	0.0
40	1.346031746031746	0.9528160129754387	-0.5793621133858974	0.0	0.9466711611045205	-0.5771674213090191	0.0	0.970326214397537	-0.7027026828608502	0.0	0.9581983186604938	-0.8313769142827773	0.0	1.0037378711743423	-0.8572558864986688	0.0	0.9899410326360089	-0.8613013568184396	0.0	0.9471696228732269	-0.8491303327906365	0.0	0.9623461904088983	-0.577441765197326	0.0	0.9721938950448092	-0.7008660559643364	0.0	0.9609656589126758	-0.8222775081196897	0.0	1.002974798045901	-0.8480097885159854	0.0	0.9996401468091544	-0.8442950320795204	0.0	0.9458666333429868	-0.8422988298512323	0.0	1.0250742305382339	-0.4216522264784996	0.0	1.0992410682766798	-0.37029683485241716	0.0	1.0794342795660075	-0.4143053987395784	0.0	1.0105896384199007	-0.42304271789011116	0.0	0.9372026669487564	-0.43201711315532626	0.0	0.8678761528068837	-0.42571318078420406	0.0	1.016737702103518	-0.4266397049910625	0.0	0.9612126745964549	-0.43645482888105763	0.0	0.889783257957511	-0.4263788277146379	0.0
41	1.3796825396825394	0.9467350230505815	-0.572227989616851	0.0	0.9399044072088443	-0.5700378866180357	0.0	0.974527758937534	-0.6930550308208192	0.0	0.9585363369942095	-0.8224124699221111	0.0	1.004577715198686	-0.8482458808277346	0.0	0.9903604514609621	-0.8523624007783827	0.0	0.9468981010787614	-0.8393978274207577	0.0	0.9577866600906262	-0.5704414023479834	0.0	0.977422155948436	-0.6908370633287482	0.0	0.9627837343092743	-0.8121288448962098	0.0	1.0040727178604996	-0.8386934780583603	0.0	1.0012439949937	-0.834026144918032	0.0	0.9481615945759011	-0.8320282733872235	0.0	1.02772821988088	-0.42133387494557634	0.0	1.1042648825809085	-0.37379758109780115	0.0	1.0829651113458183	-0.4166738259432064	0.0	1.014598638676298	-0.4230502592458883	0.0	0.9345304498474571	-0.4295082314266228	0.0	0.8595350083056255	-0.4292278732656291	0.0	1.018451499566276	-0.4248716845190955	0.0	0.9543765072147699	-0.4355994674919305	0.0	0.8788326992569234	-0.43076533856609417	0.0
42	1.413333333333333	0.9410232374078679	-0.5680015721973817	0.0	0.933162660979264	-0.5657871813830226	0.0	0.9798563436418629	-0.6850023331466335	0.0	0.958503239008755	-0.8145995692482215	0.0	1.004726813769916	-0.8402356254590917	0.0	0.9902488045346199	-0.8445342448371292	0.0	0.9462347305370338	-0.8309455598733104	0.0	0.9538144660109477	-0.5664003318535977	0.0	0.9845780626570202	-0.682061657145457	0.0	0.9647705216009932	-0.8028824410125904	0.0	1.0052655794440735	-0.8305145387419816	0.0	1.0029997827353463	-0.824843483782411	0.0	0.950855054535684	-0.8224974154933573	0.0	1.0301755588355053	-0.4238862663082237	0.0	1.1077604637185268	-0.3793556501870517	0.0	1.0859185326772705	-0.4211266717718188	0.0	1.0173066861484592	-0.4263185949681342	0.0	0.930993309961381	-0.4326175183157339	0.0	0.8523136982336013	-0.4412208703880116	0.0	1.0197272731062486	-0.42641986933265336	0.0	0.9474370509501819	-0.4401084737634727	0.0	0.8712035699693714	-0.4436240779500122	0.0
43	1.4469841269841268	0.9360573272406613	-0.567530940803903	0.0	0.9270892077330226	-0.5653272116837141	0.0	0.9856167981319053	-0.6798344894101239	0.0	0.9577396452424634	-0.8088164445651971	0.0	1.0038977478807816	-0.8341002655765949	0.0	0.9893390621466109	-0.8386065547174181	0.0	0.9447534229987333	-0.8247233296753733	0.0	0.950450725764328	-0.5661082958500593	0.0	0.992774543583595	-0.6757119704764515	0.0	0.9665540816737627	-0.7955677653798127	0.0	1.0065006200051867	-0.8243482617842973	0.0	1.0046606767130002	-0.8177118372129157	0.0	0.9535031395306228	-0.8147623033252779	0.0	1.0321719716500852	-0.42945947787347455	0.0	1.1090420296861163	-0.3865712981161364	0.0	1.0879784707187845	-0.4273590978525541	0.0	1.0183276197522513	-0.43300892228567667	0.0	0.926887557003073	-0.4418431956730706	0.0	0.8465959107290362	-0.46140332031413367	0.0	1.0203158499275238	-0.43173263663924477	0.0	0.9415210565596835	-0.45074626837009946	0.0	0.8685401567952138	-0.4647941335490958	0.0
44	1.4806349206349205	0.9319693585660315	-0.5715534808987389	0.0	0.9221025622861924	-0.5694143511261395	0.0	0.9911007593053566	-0.6787797586386706	0.0	0.9560310534768126	-0.8060424448809459	0.0	1.0019721113698	-0.8309839356087194	0.0	0.9875110470302715	-0.8356195151056335	0.0	0.9422374711917029	-0.8217617607715587	0.0	0.9475309463544745	-0.5701783903516997	0.0	1.0008196056670546	-0.6731297459400054	0.0	0.9677660793290382	-0.7916181872579011	0.0	1.0077253118602234	-0.8213966465676515	0.0	1.0059327431409586	-0.8140066516686782	0.0	0.9555232682696566	-0.8102820438423146	0.0	1.0332912673619121	-0.43793714588184246	0.0	1.1075336994020806	-0.39496909308209494	0.0	1.0886982538915912	-0.43495558447563093	0.0	1.0174852904574883	-0.44310396100976973	0.0	0.9231050433778063	-0.45757222147887017	0.0	0.8438910538550463	-0.48951384549284327	0.0	1.0200275904903389	-0.44097503910242436	0.0	0.9379533989459402	-0.46818747031860214	0.0	0.8730120082558477	-0.49409146830145106	0.0
45	1.514285714285714	0.9287325808553207	-0.580560854626238	0.0	0.9183587832386408	-0.5785582170519238	0.0	0.9957444938198563	-0.6827816444881861	0.0	0.9535427672550918	-0.8073577427139187	0.0	0.9991900220939064	-0.8322247055409285	0.0	0.9849663671530989	-0.8368137228481203	0.0	0.9388863441198424	-0.8230540560040966	0.0	0.9449278313006252	-0.5790344565977997	0.0	1.0074660147562924	-0.6756398491739218	0.0	0.9682644855111733	-0.7926315667209003	0.0	1.0088627337415517	-0.8230266767479408	0.0	1.0066362990378879	-0.8153507580960963	0.0	0.9564381721034355	-0.8106609241641355	0.0	1.0329051531938087	-0.4490425394522066	0.0	1.1029276845910148	-0.40411598766752144	0.0	1.087532596822373	-0.44355349112432485	0.0	1.014733226842517	-0.4563934846678236	0.0	0.9210876257400731	-0.4798448671284928	0.0	0.8467936324099883	-0.5248650876612337	0.0	1.0186937412630002	-0.45390644985323986	0.0	0.9381607419740338	-0.49222165906685617	0.0	0.886727026223836	-0.5305301162462617	0.0
46	1.5479365079365077	0.926274277614781	-0.5946279576716	0.0	0.9158817528711144	-0.5929213914904955	0.0	0.9991718401349051	-0.6924357063906592	0.0	0.9508292484204016	-0.8139057797356295	0.0	0.9962162035576962	-0.8391480330859018	0.0	0.9823290051759671	-0.8434500713534764	0.0	0.9353190057792888	-0.8295225496728391	0.0	0.9425667468556083	-0.5928603863210438	0.0	1.011737470024535	-0.6842947282347598	0.0	0.9681711310728061	-0.7999588766642649	0.0	1.0098544855677558	-0.8303658627363509	0.0	1.006789254259016	-0.8231858657110115	0.0	0.9559699443558148	-0.8172081227296255	0.0	1.030343322240412	-0.46237752768052415	0.0	1.0951234056780283	-0.41369166889582176	0.0	1.083892267300883	-0.45290386643218283	0.0	1.0101513880569746	-0.4724263508813688	0.0	0.9226406864242914	-0.5079152936374911	0.0	0.8584778693823909	-0.5656100091916987	0.0	1.0161476308637811	-0.4698597650277825	0.0	0.9434191905100838	-0.5210709049991665	0.0	0.9106047040272244	-0.5711457562695931	0.0
